<?xml version="1.0" standalone="no"?>
<!DOCTYPE svg PUBLIC "-//W3C//DTD SVG 20010904//EN"
 "http://www.w3.org/TR/2001/REC-SVG-20010904/DTD/svg10.dtd">
<svg version="1.0" xmlns="http://www.w3.org/2000/svg"
 width="1024.000000pt" height="1024.000000pt" viewBox="0 0 1024.000000 1024.000000"
 preserveAspectRatio="xMidYMid meet">

<g transform="translate(0.000000,1024.000000) scale(0.100000,-0.100000)"
fill="#000000" stroke="none">
<path d="M4566 8193 c-2 -10 -35 -168 -72 -350 l-67 -333 -51 -16 c-76 -24
-247 -95 -368 -152 l-106 -50 -76 48 c-41 27 -175 117 -297 200 l-222 152
-384 -384 -384 -384 53 -80 c131 -194 331 -508 331 -519 0 -6 -25 -65 -55
-131 -30 -65 -74 -171 -98 -234 -23 -63 -46 -122 -50 -130 -6 -9 -118 -38
-342 -85 l-333 -71 -3 -546 -2 -546 27 -6 c81 -16 648 -138 650 -139 0 -1 27
-72 58 -157 32 -85 79 -201 105 -257 l48 -101 -82 -129 c-45 -70 -130 -201
-189 -291 -59 -90 -107 -166 -107 -170 0 -4 170 -178 379 -386 l379 -379 294
197 294 197 110 -52 c130 -61 175 -80 314 -129 l105 -38 71 -348 70 -349 557
-3 c306 -1 557 1 557 5 1 23 137 680 143 689 3 6 28 17 54 24 75 20 186 66
334 137 l136 65 119 -78 c65 -42 196 -130 291 -196 94 -65 175 -118 180 -118
10 0 763 752 763 763 0 4 -44 74 -98 155 -55 81 -140 212 -191 291 l-92 145
49 105 c46 96 131 318 147 382 6 25 16 28 323 94 174 38 327 70 340 73 l22 4
0 547 0 546 -152 32 c-144 30 -458 97 -504 108 -16 4 -28 24 -49 87 -40 118
-80 219 -131 328 l-45 96 172 269 c94 149 180 283 191 298 11 16 19 30 17 32
-2 2 -174 175 -382 384 l-379 380 -231 -157 c-128 -87 -262 -177 -299 -200
l-68 -42 -122 61 c-68 34 -186 85 -263 113 l-139 51 -18 90 c-34 179 -99 511
-109 557 l-11 48 -553 0 c-519 0 -554 -1 -559 -17z m730 -1894 c184 -25 402
-116 552 -228 415 -313 576 -865 397 -1361 -60 -165 -153 -307 -290 -439 -234
-226 -514 -341 -835 -341 -394 0 -763 193 -978 512 -148 219 -208 441 -199
728 6 178 29 286 94 435 209 484 724 769 1259 694z"/>
</g>
</svg>
