<?xml version="1.0" standalone="no"?>
<!DOCTYPE svg PUBLIC "-//W3C//DTD SVG 20010904//EN"
 "http://www.w3.org/TR/2001/REC-SVG-20010904/DTD/svg10.dtd">
<svg version="1.0" xmlns="http://www.w3.org/2000/svg"
 width="1024.000000pt" height="1024.000000pt" viewBox="0 0 1024.000000 1024.000000"
 preserveAspectRatio="xMidYMid meet">

<g transform="translate(0.000000,1024.000000) scale(0.100000,-0.100000)"
fill="#000000" stroke="none">
<path d="M4511 8040 c-18 -4 -45 -19 -59 -33 -25 -26 -34 -59 -147 -538 l-36
-155 -87 -39 c-110 -50 -266 -143 -380 -229 -49 -36 -92 -66 -95 -66 -4 0
-149 54 -324 121 -276 105 -324 120 -362 116 -72 -8 -44 32 -500 -715 -220
-361 -230 -384 -196 -453 9 -19 125 -142 257 -275 l239 -240 -13 -90 c-15
-107 -16 -464 0 -549 l10 -60 -243 -245 c-133 -135 -248 -255 -254 -267 -6
-12 -11 -42 -11 -66 0 -40 27 -88 300 -538 188 -308 315 -508 340 -531 62 -60
80 -57 439 78 l308 117 79 -60 c139 -106 330 -218 451 -266 49 -19 36 18 129
-372 36 -154 72 -295 80 -313 26 -63 18 -62 679 -62 645 0 640 0 683 54 13 17
34 83 56 179 20 84 54 229 77 323 l40 170 67 29 c137 58 328 171 451 267 l63
50 303 -116 c188 -72 317 -116 340 -116 48 0 96 24 124 60 11 16 152 245 313
507 302 496 312 516 293 590 -4 18 -92 114 -250 273 l-244 245 11 70 c16 100
13 461 -4 562 l-14 82 247 248 c218 218 248 253 255 288 4 21 3 55 -3 75 -8
30 -138 248 -541 909 -81 133 -111 161 -173 161 -23 0 -158 -46 -353 -120
l-316 -120 -93 68 c-120 90 -245 164 -364 218 -53 23 -99 46 -103 51 -4 4 -40
144 -79 310 -39 167 -78 320 -86 341 -9 22 -29 46 -48 58 -31 18 -57 19 -627
21 -327 1 -610 -2 -629 -7z m736 -1915 c85 -8 193 -40 289 -84 266 -125 454
-343 540 -626 25 -82 28 -105 28 -255 1 -132 -3 -179 -18 -235 -76 -283 -274
-529 -526 -655 -151 -75 -276 -104 -450 -103 -262 2 -489 98 -683 290 -267
264 -361 642 -246 988 108 324 362 567 684 656 80 21 223 38 285 33 19 -2 63
-6 97 -9z"/>
</g>
</svg>
