<svg xmlns="http://www.w3.org/2000/svg" width="1024" height="1024" viewBox="0 0 1024 1024">
<polygon points="558,741 557,742" fill="#f4b400"/>
<polygon points="634,711" fill="#f4b400"/>
<polygon points="653,710" fill="#f4b400"/>
<polygon points="649,710" fill="#f4b400"/>
<polygon points="638,710" fill="#f4b400"/>
<polygon points="387,710" fill="#f4b400"/>
<polygon points="635,709" fill="#f4b400"/>
<polygon points="633,709" fill="#f4b400"/>
<polygon points="371,709 372,710" fill="#f4b400"/>
<polygon points="391,708" fill="#f4b400"/>
<polygon points="654,707" fill="#f4b400"/>
<polygon points="394,703" fill="#f4b400"/>
<polygon points="663,702 662,703" fill="#f4b400"/>
<polygon points="630,702" fill="#f4b400"/>
<polygon points="626,702" fill="#f4b400"/>
<polygon points="363,701 362,702" fill="#f4b400"/>
<polygon points="660,699 659,700" fill="#f4b400"/>
<polygon points="567,699" fill="#f4b400"/>
<polygon points="363,699" fill="#f4b400"/>
<polygon points="362,697" fill="#f4b400"/>
<polygon points="578,695" fill="#f4b400"/>
<polygon points="435,695" fill="#f4b400"/>
<polygon points="671,694 670,695" fill="#f4b400"/>
<polygon points="440,694" fill="#f4b400"/>
<polygon points="356,694" fill="#f4b400"/>
<polygon points="358,693" fill="#f4b400"/>
<polygon points="437,692 438,692" fill="#f4b400"/>
<polygon points="616,691 617,692" fill="#f4b400"/>
<polygon points="669,690 667,692" fill="#f4b400"/>
<polygon points="410,690" fill="#f4b400"/>
<polygon points="353,690" fill="#f4b400"/>
<polygon points="670,688" fill="#f4b400"/>
<polygon points="678,687" fill="#f4b400"/>
<polygon points="610,686" fill="#f4b400"/>
<polygon points="350,685" fill="#f4b400"/>
<polygon points="677,681" fill="#f4b400"/>
<polygon points="686,679" fill="#f4b400"/>
<polygon points="341,679" fill="#f4b400"/>
<polygon points="336,679" fill="#f4b400"/>
<polygon points="342,677" fill="#f4b400"/>
<polygon points="339,677" fill="#f4b400"/>
<polygon points="687,675 686,676" fill="#f4b400"/>
<polygon points="684,675" fill="#f4b400"/>
<polygon points="339,675" fill="#f4b400"/>
<polygon points="337,674" fill="#f4b400"/>
<polygon points="693,670" fill="#f4b400"/>
<polygon points="330,670" fill="#f4b400"/>
<polygon points="692,667" fill="#f4b400"/>
<polygon points="331,667 330,668" fill="#f4b400"/>
<polygon points="693,665" fill="#f4b400"/>
<polygon points="699,662" fill="#f4b400"/>
<polygon points="697,661" fill="#f4b400"/>
<polygon points="323,660 324,661 324,662 325,663 326,662 325,663 324,662 324,661" fill="#f4b400"/>
<polygon points="702,658" fill="#f4b400"/>
<polygon points="709,654 710,655" fill="#f4b400"/>
<polygon points="318,654" fill="#f4b400"/>
<polygon points="316,654" fill="#f4b400"/>
<polygon points="710,652" fill="#f4b400"/>
<polygon points="708,651" fill="#f4b400"/>
<polygon points="313,650" fill="#f4b400"/>
<polygon points="710,640 711,641" fill="#f4b400"/>
<polygon points="708,635" fill="#f4b400"/>
<polygon points="315,633" fill="#f4b400"/>
<polygon points="708,632" fill="#f4b400"/>
<polygon points="313,632" fill="#f4b400"/>
<polygon points="321,629" fill="#f4b400"/>
<polygon points="702,627" fill="#f4b400"/>
<polygon points="322,626" fill="#f4b400"/>
<polygon points="702,624" fill="#f4b400"/>
<polygon points="694,618" fill="#f4b400"/>
<polygon points="337,603" fill="#f4b400"/>
<polygon points="331,587" fill="#f4b400"/>
<polygon points="329,583" fill="#f4b400"/>
<polygon points="321,573" fill="#f4b400"/>
<polygon points="703,565" fill="#f4b400"/>
<polygon points="744,558" fill="#f4b400"/>
<polygon points="737,558" fill="#f4b400"/>
<polygon points="750,557" fill="#f4b400"/>
<polygon points="746,557 747,557" fill="#f4b400"/>
<polygon points="282,557" fill="#f4b400"/>
<polygon points="748,555" fill="#f4b400"/>
<polygon points="750,552" fill="#f4b400"/>
<polygon points="748,552" fill="#f4b400"/>
<polygon points="749,471" fill="#f4b400"/>
<polygon points="321,460" fill="#f4b400"/>
<polygon points="702,458" fill="#f4b400"/>
<polygon points="701,451" fill="#f4b400"/>
<polygon points="332,432" fill="#f4b400"/>
<polygon points="694,405" fill="#f4b400"/>
<polygon points="323,399" fill="#f4b400"/>
<polygon points="700,397" fill="#f4b400"/>
<polygon points="706,390" fill="#f4b400"/>
<polygon points="317,390" fill="#f4b400"/>
<polygon points="313,375" fill="#f4b400"/>
<polygon points="313,373" fill="#f4b400"/>
<polygon points="317,370" fill="#f4b400"/>
<polygon points="707,369" fill="#f4b400"/>
<polygon points="315,369" fill="#f4b400"/>
<polygon points="313,369" fill="#f4b400"/>
<polygon points="700,364" fill="#f4b400"/>
<polygon points="699,362" fill="#f4b400"/>
<polygon points="324,362" fill="#f4b400"/>
<polygon points="320,360" fill="#f4b400"/>
<polygon points="328,357" fill="#f4b400"/>
<polygon points="694,355" fill="#f4b400"/>
<polygon points="332,354 331,355" fill="#f4b400"/>
<polygon points="336,350" fill="#f4b400"/>
<polygon points="685,348" fill="#f4b400"/>
<polygon points="683,346" fill="#f4b400"/>
<polygon points="342,346 341,347" fill="#f4b400"/>
<polygon points="338,344" fill="#f4b400"/>
<polygon points="347,340" fill="#f4b400"/>
<polygon points="345,339" fill="#f4b400"/>
<polygon points="675,338" fill="#f4b400"/>
<polygon points="345,336 344,337" fill="#f4b400"/>
<polygon points="670,334" fill="#f4b400"/>
<polygon points="432,333" fill="#f4b400"/>
<polygon points="669,332" fill="#f4b400"/>
<polygon points="434,332" fill="#f4b400"/>
<polygon points="355,332" fill="#f4b400"/>
<polygon points="440,331" fill="#f4b400"/>
<polygon points="585,330" fill="#f4b400"/>
<polygon points="436,330" fill="#f4b400"/>
<polygon points="354,330 353,331" fill="#f4b400"/>
<polygon points="617,329 618,330" fill="#f4b400"/>
<polygon points="587,329" fill="#f4b400"/>
<polygon points="671,328" fill="#f4b400"/>
<polygon points="446,328" fill="#f4b400"/>
<polygon points="356,328" fill="#f4b400"/>
<polygon points="353,328" fill="#f4b400"/>
<polygon points="626,324" fill="#f4b400"/>
<polygon points="457,324" fill="#f4b400"/>
<polygon points="364,323 363,324" fill="#f4b400"/>
<polygon points="663,322" fill="#f4b400"/>
<polygon points="660,322" fill="#f4b400"/>
<polygon points="566,322" fill="#f4b400"/>
<polygon points="397,322" fill="#f4b400"/>
<polygon points="624,321" fill="#f4b400"/>
<polygon points="364,320" fill="#f4b400"/>
<polygon points="361,320 360,321 361,320 362,321" fill="#f4b400"/>
<polygon points="369,316" fill="#f4b400"/>
<polygon points="651,315 652,316" fill="#f4b400"/>
<polygon points="388,315" fill="#f4b400"/>
<polygon points="633,314" fill="#f4b400"/>
<polygon points="653,313" fill="#f4b400"/>
<polygon points="646,313" fill="#f4b400"/>
<polygon points="391,313" fill="#f4b400"/>
<polygon points="388,313" fill="#f4b400"/>
<polygon points="370,313" fill="#f4b400"/>
<polygon points="372,312" fill="#f4b400"/>
<polygon points="464,285" fill="#f4b400"/>
<polygon points="465,280" fill="#f4b400"/>
<polygon points="546,279 545,280 470,280 468,282 468,283 467,284 467,285 468,286 467,287 467,292 466,293 466,296 465,297 465,304 464,305 464,311 463,312 463,315 462,316 462,318 461,319 462,320 461,321 461,322 460,323 460,325 459,326 458,326 456,328 453,328 452,329 450,329 449,330 448,330 447,331 443,331 441,333 439,333 438,332 439,333 438,334 437,334 436,335 435,334 434,335 433,335 431,337 428,337 427,338 426,338 425,339 422,339 420,341 418,339 419,340 418,341 417,341 416,340 415,340 414,339 414,338 413,338 411,336 411,335 410,336 406,332 405,332 401,328 400,328 398,326 397,326 394,323 393,323 390,320 390,319 389,319 388,318 388,317 387,317 386,316 384,316 383,315 382,315 381,314 378,314 376,316 375,315 375,316 373,318 372,317 373,318 370,321 369,321 368,322 368,323 367,324 366,324 364,326 364,327 362,329 361,329 361,330 359,332 358,332 357,331 358,332 356,334 356,335 355,336 354,336 353,337 353,338 351,340 350,340 348,342 348,343 342,349 341,349 340,350 340,351 339,352 338,352 336,354 335,354 334,355 334,356 332,358 331,358 331,359 328,362 327,362 327,363 325,365 324,364 324,366 323,367 322,366 323,367 320,370 319,369 320,370 316,374 315,373 315,377 314,378 314,379 315,380 315,381 314,382 317,385 317,387 321,391 322,391 324,393 324,394 323,395 324,394 325,395 325,396 326,397 325,398 326,397 329,400 329,401 331,403 331,404 330,405 331,404 333,406 333,407 334,407 336,409 336,411 337,411 338,412 338,413 341,416 341,418 340,419 340,421 339,422 339,423 338,424 338,426 337,427 337,428 336,429 336,431 335,432 335,433 334,434 334,435 333,436 333,437 332,438 331,438 332,439 332,440 331,441 331,442 330,443 330,444 329,445 329,447 327,449 327,452 326,453 326,456 325,457 325,458 323,460 323,461 321,463 315,463 314,464 305,464 304,465 297,465 296,466 295,465 294,466 289,466 288,467 284,467 283,468 281,468 280,469 279,469 278,470 278,474 277,475 277,477 278,478 278,487 277,488 277,489 278,490 278,495 277,496 277,503 278,504 278,527 277,528 278,529 278,542 277,543 277,547 278,548 277,549 277,550 278,551 278,553 279,553 281,555 280,556 281,555 283,555 284,556 285,556 286,557 287,556 289,556 290,557 294,557 295,558 300,558 301,559 309,559 310,560 315,560 316,561 316,562 317,561 318,562 320,562 322,564 323,563 324,564 324,566 325,567 325,568 326,569 326,570 327,571 327,574 329,576 329,580 332,583 332,585 333,586 333,588 334,589 334,591 336,593 336,595 337,596 336,597 339,600 338,601 339,601 340,602 340,604 341,605 341,607 340,608 339,608 339,609 337,611 337,612 334,615 334,616 331,619 330,618 328,620 329,621 329,622 327,624 327,625 326,626 325,625 326,626 325,627 325,628 321,632 321,633 320,634 319,634 318,633 316,635 317,634 318,635 318,636 316,638 316,639 314,641 314,646 316,648 316,649 317,650 317,651 318,652 319,652 322,655 323,655 324,656 323,657 325,657 326,658 326,659 327,659 328,660 328,661 330,663 331,663 332,664 332,665 334,667 335,667 336,668 336,669 339,672 339,673 340,673 341,674 341,675 343,675 346,678 346,679 347,680 347,681 348,682 349,682 350,683 351,683 352,684 352,685 354,687 355,687 356,688 356,690 354,692 356,690 358,690 360,692 360,693 361,693 362,694 362,695 363,695 364,696 364,697 366,699 366,700 367,699 368,700 368,701 369,701 370,702 370,703 371,703 372,704 372,706 373,705 376,708 377,708 378,709 380,709 381,710 381,709 382,708 383,708 384,707 385,707 386,706 388,708 387,707 388,706 388,705 389,704 390,705 390,706 390,705 389,704 391,702 392,702 394,700 395,701 394,700 395,699 396,699 400,695 401,695 402,694 403,694 405,692 406,693 407,692 408,693 406,691 409,688 410,688 412,686 413,686 414,685 415,685 416,684 417,684 418,683 422,683 423,684 424,684 425,685 426,685 427,686 429,686 430,687 431,687 432,688 433,688 434,689 435,688 436,689 436,690 437,689 438,690 440,690 441,691 442,691 443,692 445,692 446,693 447,693 448,694 450,694 451,695 454,695 455,696 456,696 457,697 457,698 458,699 459,698 460,699 460,700 461,701 461,705 462,706 462,711 463,712 463,715 464,716 464,720 465,721 465,728 466,729 466,734 467,735 467,738 468,739 468,741 469,742 468,743 469,742 471,744 542,744 543,743 544,744 545,743 546,744 552,744 553,743 555,743 555,741 556,740 556,737 557,736 557,731 558,730 558,725 559,724 559,718 560,717 560,713 561,712 561,708 562,707 562,704 563,703 563,700 566,697 568,697 569,696 570,696 571,695 572,696 574,694 575,694 576,693 577,693 578,692 580,692 581,691 582,692 584,690 585,690 586,689 587,690 587,689 588,688 589,689 590,688 591,688 593,686 594,686 595,685 596,686 597,685 598,685 599,684 600,684 601,683 602,683 603,682 604,683 604,682 605,681 606,681 607,682 608,682 610,684 611,684 615,688 616,688 621,693 620,694 621,693 622,693 625,696 625,697 626,696 628,698 626,700 628,698 629,699 629,700 631,700 636,705 635,706 634,706 635,706 636,705 637,706 638,706 639,707 640,707 641,708 641,709 642,708 645,708 646,709 648,707 649,708 650,707 651,708 649,706 650,705 651,705 655,701 655,700 656,699 657,699 659,697 659,696 661,694 662,694 662,693 664,691 665,691 668,688 668,687 669,686 670,686 671,685 671,684 672,683 674,683 675,684 676,683 674,681 676,679 677,679 677,678 680,675 681,675 683,673 683,672 685,670 686,670 687,669 687,668 688,667 689,667 690,666 690,665 693,662 694,662 694,661 697,658 698,658 699,659 698,658 703,653 704,653 704,652 707,649 707,648 708,647 708,641 707,640 707,639 706,638 706,637 703,634 703,633 702,633 700,631 700,630 699,629 700,628 699,629 698,628 698,627 697,626 698,625 697,626 695,624 695,623 694,622 695,621 694,622 693,621 693,620 689,616 689,615 687,613 687,612 682,607 682,605 683,604 683,603 684,602 684,600 686,598 686,596 687,595 687,593 689,591 689,589 690,588 691,589 690,588 690,586 692,584 692,582 693,581 693,580 694,579 694,576 696,574 697,575 696,574 696,573 697,572 697,569 698,568 698,567 699,566 699,564 700,563 701,564 700,563 701,562 702,562 703,563 704,563 704,562 705,561 707,561 708,560 713,560 714,559 723,559 724,558 728,558 729,557 735,557 736,556 741,556 742,555 743,555 744,556 746,554 746,473 745,472 746,471 743,468 739,468 738,467 736,467 735,466 734,467 733,467 732,466 727,466 726,465 720,465 719,464 709,464 708,463 704,463 703,462 702,462 701,461 701,460 698,457 698,455 697,454 697,453 698,452 697,452 696,451 696,450 695,449 695,448 694,447 694,446 693,445 693,443 692,442 692,441 693,440 692,441 691,440 691,438 690,437 690,436 689,435 689,433 688,432 688,431 687,430 687,428 686,427 686,426 685,425 685,424 684,423 684,422 683,421 683,419 682,418 682,416 684,414 685,414 685,413 687,411 687,410 689,408 689,407 693,403 693,402 695,400 695,399 698,396 698,395 702,391 702,390 705,387 706,387 706,385 707,384 708,385 707,384 707,383 708,382 709,383 708,382 708,375 705,372 706,371 705,372 703,370 704,369 703,370 700,367 701,366 700,367 697,364 697,363 696,363 692,359 692,358 691,358 689,356 689,355 688,354 687,354 685,352 685,351 686,350 685,351 680,346 681,345 680,346 679,346 676,343 676,342 675,342 674,341 674,340 673,339 672,339 664,331 665,330 664,331 660,327 661,326 659,324 658,325 650,317 649,317 647,315 641,315 639,313 640,314 638,316 638,317 637,318 635,316 636,317 636,319 633,322 632,322 630,324 629,323 629,324 625,328 624,328 622,330 621,330 617,334 616,334 613,337 612,337 611,338 610,338 609,337 610,338 610,339 609,340 608,340 607,341 605,341 604,340 601,340 600,339 598,339 596,337 595,337 594,336 593,337 592,336 591,336 590,335 589,335 587,333 586,334 585,334 584,333 583,333 582,332 582,331 581,332 580,332 579,331 578,331 577,330 576,330 575,329 572,329 571,328 570,328 569,327 566,327 565,326 566,325 565,324 564,325 563,324 563,322 562,321 562,318 561,317 561,311 560,310 560,306 559,305 559,299 558,298 558,293 557,292 557,288 556,287 557,286 556,285 556,284 557,283 558,284 557,283 556,284 555,283 555,282 553,280 548,280 547,279" fill="#f4b400"/>
</svg>